<?xml version="1.0" standalone="no"?>
<!DOCTYPE svg PUBLIC "-//W3C//DTD SVG 20010904//EN"
 "http://www.w3.org/TR/2001/REC-SVG-20010904/DTD/svg10.dtd">
<svg version="1.0" xmlns="http://www.w3.org/2000/svg"
 width="1280.000000pt" height="640.000000pt" viewBox="0 0 1280.000000 640.000000"
 preserveAspectRatio="xMidYMid meet">
<g transform="translate(0.000000,640.000000) scale(0.100000,-0.100000)"
fill="#4caf50" stroke="none">
<path d="M9781 5625 c-15 -48 -28 -75 -37 -75 -8 0 -42 11 -76 25 -34 14 -63
23 -66 21 -2 -3 15 -32 37 -65 23 -33 41 -64 41 -68 0 -5 -30 -26 -66 -47 -36
-20 -64 -39 -61 -42 2 -2 37 -8 78 -12 84 -8 80 0 66 -117 l-8 -60 53 58 c29
31 57 57 63 57 5 0 33 -24 63 -52 l53 -53 -3 80 -3 80 74 7 c41 4 76 9 77 11
2 2 -23 19 -57 37 -33 19 -64 39 -69 45 -6 7 7 35 36 78 24 37 40 67 35 67 -5
0 -37 -12 -70 -26 -33 -15 -66 -24 -74 -21 -7 3 -22 34 -32 68 -10 35 -21 68
-25 72 -4 4 -17 -26 -29 -68z"/>
<path d="M12262 5439 c-9 -13 -19 -18 -32 -14 -15 5 -17 2 -13 -15 3 -11 1
-26 -5 -33 -8 -9 -6 -16 9 -25 10 -7 19 -19 19 -28 0 -13 3 -14 14 -5 11 9 20
10 35 1 18 -9 21 -8 21 9 0 11 9 23 21 26 17 6 18 9 7 22 -7 9 -12 24 -10 34
2 13 -1 17 -11 13 -8 -3 -21 3 -29 15 -14 20 -14 20 -26 0z"/>
<path d="M10883 5315 c8 -58 24 -86 86 -160 28 -32 51 -65 51 -72 0 -23 -33
-31 -92 -22 -161 26 -258 99 -294 224 l-21 70 -7 -36 c-11 -51 9 -113 49 -158
67 -74 185 -120 500 -196 104 -26 195 -51 202 -57 38 -31 -1 -52 -132 -70 -49
-7 -90 -17 -89 -23 2 -18 103 -66 171 -80 96 -20 106 -35 101 -145 -5 -97 -30
-165 -81 -218 -68 -71 -141 -94 -581 -183 -399 -81 -454 -96 -527 -145 -29
-19 -58 -33 -64 -30 -13 5 -25 51 -25 97 0 50 -20 42 -50 -23 -32 -67 -40
-141 -19 -181 7 -12 37 -51 68 -87 79 -90 98 -120 112 -173 24 -86 -25 -177
-141 -267 -89 -68 -106 -97 -87 -142 19 -45 147 -209 194 -247 35 -29 97 -50
109 -38 3 3 -13 22 -36 43 -72 67 -113 160 -90 203 7 14 38 29 97 47 129 39
173 61 221 107 74 71 94 123 101 260 7 143 14 152 101 142 30 -3 91 -10 135
-15 44 -6 168 -10 275 -9 150 0 209 -3 255 -16 85 -23 209 -82 242 -117 25
-26 28 -37 28 -91 0 -52 -7 -76 -44 -155 -25 -50 -42 -95 -38 -98 10 -10 141
130 176 189 52 89 64 131 47 170 -12 31 -69 84 -143 136 -39 27 -42 44 -8 59
40 18 115 93 137 137 37 72 29 145 -36 337 -102 303 -89 390 67 440 55 17 82
33 118 68 42 39 70 92 57 105 -2 3 -36 9 -76 15 -39 5 -115 24 -167 41 -70 23
-105 30 -133 25 -189 -32 -232 -13 -321 141 -44 77 -56 90 -67 72 -3 -6 10
-43 30 -82 20 -40 36 -78 36 -84 0 -23 -61 -14 -121 18 -85 46 -167 133 -220
234 -24 46 -48 85 -53 85 -5 0 -6 -20 -3 -45z"/>
<path d="M6805 5148 c-4 -10 -17 -18 -30 -18 -18 0 -21 -4 -17 -25 2 -15 0
-25 -7 -25 -6 0 -11 -4 -11 -10 0 -5 6 -10 14 -10 8 0 17 -9 21 -19 4 -13 12
-17 25 -14 11 3 27 0 35 -7 13 -10 15 -9 15 10 0 14 8 24 20 27 19 5 19 7 5
23 -8 9 -13 25 -9 34 4 12 1 16 -14 16 -12 0 -25 8 -31 18 -9 16 -10 16 -16 0z"/>
<path d="M7670 5078 c-7 -24 -17 -46 -23 -50 -6 -3 -32 2 -59 13 l-48 19 15
-28 c8 -15 20 -34 27 -43 16 -24 4 -47 -37 -66 -47 -22 -44 -33 8 -33 57 0 67
-12 61 -74 l-5 -51 34 38 c19 20 38 37 43 37 4 0 26 -17 47 -37 l39 -38 -6 54
c-8 63 -2 71 63 71 36 0 41 2 32 14 -6 8 -25 19 -41 26 -40 16 -42 32 -13 75
13 20 22 39 19 42 -3 3 -24 -2 -46 -11 -23 -9 -46 -14 -51 -11 -5 4 -14 26
-20 51 -6 24 -15 44 -19 44 -4 0 -13 -19 -20 -42z"/>
<path d="M8434 5107 c-4 -12 -13 -17 -26 -13 -16 4 -19 1 -15 -15 3 -11 -1
-26 -9 -34 -13 -12 -12 -15 6 -25 11 -6 20 -17 20 -24 0 -8 13 -12 35 -12 20
1 35 6 35 13 0 7 10 17 21 24 16 8 18 13 9 19 -7 4 -11 19 -8 33 4 20 1 23
-14 19 -11 -3 -24 3 -33 14 -13 18 -14 18 -21 1z"/>
<path d="M2360 5025 c-8 -9 -22 -14 -32 -12 -14 4 -17 1 -12 -18 3 -12 1 -26
-5 -29 -17 -11 -13 -23 9 -29 11 -3 20 -12 20 -20 0 -10 7 -13 20 -10 11 3 27
0 35 -7 13 -11 15 -8 15 14 0 16 5 26 15 26 17 0 20 16 5 25 -6 4 -8 15 -5 26
5 14 2 19 -14 19 -11 0 -24 7 -29 16 -8 14 -10 14 -22 -1z"/>
<path d="M8960 4925 c0 -50 20 -92 72 -150 79 -88 82 -115 15 -115 -92 0 -215
48 -270 105 -36 37 -77 126 -77 166 0 11 -4 17 -10 14 -15 -9 -12 -90 4 -128
20 -49 98 -112 181 -146 69 -29 261 -83 460 -130 49 -12 96 -28 105 -37 13
-14 13 -17 -4 -29 -19 -15 -82 -29 -174 -40 -33 -5 -52 -11 -49 -19 6 -20 105
-67 167 -78 33 -5 70 -18 81 -27 45 -36 32 -194 -22 -290 -60 -104 -133 -132
-628 -232 -435 -88 -461 -96 -544 -162 -28 -22 -29 -22 -43 -3 -8 11 -14 36
-15 55 -1 20 -4 47 -9 61 -7 23 -10 19 -40 -43 -60 -127 -54 -162 56 -287 83
-95 104 -135 104 -201 0 -87 -36 -139 -183 -262 -40 -34 -57 -55 -57 -72 0
-62 204 -306 268 -320 18 -4 36 -4 39 -1 3 3 -14 28 -40 54 -79 86 -108 170
-69 204 9 9 62 30 117 47 154 49 206 87 257 185 17 32 23 66 28 158 5 96 10
121 26 139 21 23 27 23 239 -1 50 -5 155 -7 235 -4 192 7 277 -8 408 -73 117
-58 137 -81 135 -158 -1 -42 -12 -76 -47 -150 -25 -54 -40 -95 -33 -95 25 0
153 147 190 217 61 117 50 151 -78 248 -41 31 -75 58 -75 60 0 2 26 22 59 44
119 81 171 169 157 268 -3 26 -33 104 -65 174 -66 141 -86 218 -79 309 6 84
27 109 119 141 79 28 149 80 175 131 23 45 14 54 -64 61 -38 3 -111 20 -162
38 -75 25 -101 30 -141 25 -27 -3 -71 -9 -98 -12 -93 -12 -155 33 -231 168
-35 61 -60 84 -60 54 0 -9 16 -48 35 -87 20 -38 33 -74 30 -79 -21 -34 -150
27 -233 109 -40 39 -73 85 -103 144 -24 48 -47 87 -51 87 -5 0 -8 -16 -8 -35z"/>
<path d="M6031 4900 c-13 -43 -29 -49 -76 -28 -35 16 -41 5 -16 -30 28 -41 27
-49 -15 -74 -40 -23 -35 -35 16 -40 35 -3 35 -3 34 -50 0 -27 2 -48 5 -48 3 0
20 14 38 32 l33 32 36 -35 36 -34 -2 40 c-3 63 -2 65 33 65 17 0 38 4 46 9 12
7 7 13 -22 27 -43 20 -45 33 -15 82 l22 35 -25 -8 c-13 -4 -37 -8 -54 -9 -26
-1 -30 3 -38 37 -5 20 -12 37 -16 37 -4 0 -13 -18 -20 -40z"/>
<path d="M5092 4819 c-9 -13 -19 -18 -32 -14 -15 5 -17 2 -13 -15 3 -11 1 -26
-5 -33 -8 -9 -6 -16 9 -25 10 -7 19 -19 19 -28 0 -13 3 -14 14 -5 11 9 20 10
35 1 18 -9 21 -8 21 9 0 11 9 23 21 26 17 6 18 9 7 22 -7 9 -12 24 -10 34 2
13 -1 17 -11 13 -8 -3 -21 3 -29 15 -14 20 -14 20 -26 0z"/>
<path d="M1390 4739 c-12 -38 -27 -72 -34 -75 -8 -3 -42 7 -76 21 -34 14 -64
24 -67 21 -3 -2 14 -32 37 -65 22 -34 38 -66 35 -71 -3 -5 -27 -22 -53 -37
-83 -47 -83 -47 4 -58 90 -12 85 -3 70 -120 l-8 -60 52 58 c28 31 57 57 64 57
7 0 35 -23 61 -51 26 -28 49 -48 52 -45 3 3 1 34 -4 68 -6 35 -8 68 -6 74 2 6
40 15 85 20 l81 9 -62 35 c-89 50 -89 50 -40 120 23 33 40 62 37 65 -2 3 -33
-7 -68 -21 -34 -14 -68 -23 -75 -20 -7 2 -22 36 -34 75 -12 39 -24 71 -26 71
-2 0 -14 -32 -25 -71z"/>
<path d="M4040 4584 c-7 -25 -19 -48 -27 -51 -8 -3 -34 2 -59 12 -25 9 -47 15
-49 13 -2 -2 9 -24 25 -48 17 -25 30 -48 30 -53 0 -4 -22 -19 -50 -35 -27 -15
-50 -30 -50 -34 0 -4 26 -8 58 -10 l57 -3 -3 -65 -2 -64 45 44 45 44 45 -44
45 -44 -2 64 -3 65 58 3 c31 2 57 6 57 10 0 4 -23 19 -50 34 -28 16 -50 31
-50 35 0 5 13 28 30 53 16 24 27 46 25 48 -2 2 -24 -4 -49 -13 -25 -10 -52
-15 -59 -12 -8 3 -19 26 -26 51 -6 25 -15 46 -20 46 -5 0 -14 -21 -21 -46z"/>
<path d="M3080 4584 c-6 -14 -10 -31 -10 -38 0 -30 -26 -37 -69 -20 -23 9 -45
14 -48 11 -3 -4 6 -22 21 -41 14 -19 26 -39 26 -45 0 -6 -21 -23 -47 -38 -43
-25 -46 -28 -23 -31 14 -1 40 -5 59 -8 l34 -5 -7 -57 -7 -57 39 38 c21 20 41
37 45 37 5 0 23 -17 42 -37 19 -21 36 -35 39 -33 2 3 1 24 -3 47 -5 23 -5 47
0 54 4 7 29 16 56 19 l48 5 -42 28 c-24 15 -43 33 -43 40 0 7 11 28 25 47 14
18 23 36 20 38 -2 3 -25 -3 -50 -12 -24 -10 -49 -15 -54 -12 -4 3 -14 26 -20
51 -6 25 -14 45 -16 45 -3 0 -10 -12 -15 -26z"/>
<path d="M6831 4522 c-1 -77 15 -117 63 -160 74 -64 186 -107 461 -172 222
-53 235 -58 235 -79 0 -24 -38 -40 -128 -52 -95 -12 -114 -18 -106 -30 12 -19
109 -61 173 -74 87 -19 101 -36 101 -124 0 -138 -51 -237 -147 -289 -79 -42
-153 -61 -533 -137 -379 -76 -439 -92 -510 -141 -28 -19 -57 -33 -64 -31 -13
5 -26 59 -26 110 0 43 -19 32 -46 -28 -56 -121 -48 -164 53 -281 85 -100 113
-150 113 -209 0 -79 -40 -136 -178 -253 -81 -70 -82 -86 -5 -195 83 -117 161
-194 207 -202 20 -4 40 -4 44 -1 3 4 -12 24 -35 44 -50 46 -78 86 -91 134 -20
72 -12 79 143 128 200 65 275 161 275 356 0 135 21 155 141 134 35 -7 188 -15
339 -19 299 -8 309 -10 440 -76 97 -49 115 -73 115 -149 0 -53 -7 -76 -44
-155 -24 -50 -41 -94 -39 -97 11 -11 120 102 168 172 65 98 79 143 57 189 -15
31 -112 121 -157 145 -29 16 -24 33 16 55 20 10 58 43 84 72 87 95 89 179 10
389 -64 170 -82 276 -59 345 18 53 47 78 119 99 46 14 82 33 112 60 46 40 83
99 70 112 -4 4 -40 12 -79 18 -40 5 -113 23 -163 40 -97 32 -133 36 -177 19
-44 -17 -117 -12 -162 10 -44 23 -73 57 -123 145 -18 33 -39 61 -45 64 -22 7
-14 -36 17 -91 39 -70 39 -87 -1 -87 -90 0 -238 130 -308 268 -44 88 -67 100
-56 28 10 -54 18 -69 81 -144 80 -94 71 -118 -40 -101 -175 28 -256 99 -304
269 -9 33 -10 31 -11 -28z"/>
<path d="M12360 4529 c-14 -49 -29 -56 -82 -35 -23 9 -43 14 -45 13 -1 -2 9
-20 22 -40 34 -49 32 -63 -15 -89 -22 -13 -40 -26 -40 -30 0 -5 22 -8 49 -8
57 0 60 -5 54 -75 l-4 -50 31 38 c18 20 39 37 47 37 9 0 31 -17 50 -37 l33
-38 -2 60 -3 60 53 3 c28 2 52 6 52 10 0 4 -16 16 -35 26 -56 31 -58 38 -26
87 17 24 28 45 26 47 -1 2 -20 -4 -40 -12 -61 -26 -73 -22 -86 29 -6 25 -15
45 -20 45 -4 0 -13 -18 -19 -41z"/>
<path d="M11022 4470 c-326 -50 -1191 -223 -1203 -241 -5 -8 -9 -22 -9 -32 0
-13 6 -16 23 -12 12 3 301 62 642 130 631 128 738 151 765 166 26 14 -86 9
-218 -11z"/>
<path d="M5666 4304 c-4 -10 -14 -14 -26 -11 -17 4 -19 1 -14 -18 3 -12 1 -26
-5 -29 -16 -10 -13 -26 4 -26 8 0 15 -9 15 -20 0 -21 15 -27 25 -10 4 7 13 7
26 0 15 -8 19 -7 19 4 0 9 9 20 21 26 16 9 18 14 9 25 -6 8 -9 23 -5 34 5 16
2 18 -14 14 -14 -3 -23 0 -27 11 -3 9 -10 16 -14 16 -4 0 -11 -7 -14 -16z"/>
<path d="M5227 4176 c-15 -38 16 -105 91 -196 58 -72 54 -85 -28 -84 -69 1
-153 28 -212 67 -46 31 -96 109 -104 162 -9 65 -24 65 -24 0 0 -152 108 -220
500 -316 240 -59 260 -66 260 -89 0 -23 -16 -29 -133 -49 -54 -9 -99 -21 -100
-26 -3 -17 123 -74 179 -81 68 -8 83 -20 95 -72 19 -88 -20 -227 -83 -291 -68
-69 -137 -91 -613 -187 -374 -76 -437 -94 -510 -150 -46 -35 -62 -22 -71 57
-4 32 -11 59 -16 59 -15 0 -61 -111 -66 -160 -5 -58 9 -88 88 -177 105 -118
131 -200 91 -288 -20 -45 -55 -83 -154 -168 -81 -71 -84 -89 -28 -173 92 -137
195 -234 248 -234 33 0 29 10 -23 60 -68 66 -101 140 -84 185 7 19 30 30 120
59 137 44 155 54 210 108 66 65 82 113 90 252 8 161 1 156 202 131 73 -9 193
-14 320 -13 198 2 205 1 283 -26 111 -38 194 -85 217 -121 29 -45 20 -132 -21
-213 -64 -126 -61 -140 15 -70 86 80 173 220 174 281 0 34 -69 111 -141 158
-27 17 -49 36 -49 43 0 6 16 20 36 31 61 33 130 117 144 176 17 69 8 118 -50
289 -64 189 -77 255 -61 324 14 64 39 89 112 115 82 28 112 46 148 87 33 37
56 83 46 92 -3 3 -36 9 -73 13 -37 4 -112 22 -166 39 -79 26 -109 31 -145 26
-131 -19 -149 -19 -195 3 -48 24 -74 54 -124 142 -18 31 -39 62 -47 69 -26 22
-18 -30 15 -89 39 -70 39 -91 2 -91 -88 0 -240 130 -310 268 -24 45 -45 82
-46 82 -2 0 -6 -6 -9 -14z"/>
<path d="M4565 4128 c-12 -53 -22 -60 -62 -43 -52 22 -57 19 -34 -19 29 -46
27 -58 -14 -80 -41 -22 -37 -36 10 -36 41 0 50 -12 46 -65 l-3 -40 36 34 36
35 33 -32 c18 -18 35 -32 37 -32 3 0 5 21 5 47 l0 48 43 3 c23 2 42 7 42 11 0
4 -16 16 -35 27 -41 22 -43 35 -14 76 25 35 21 42 -15 28 -50 -19 -64 -13 -77
30 -15 48 -25 51 -34 8z"/>
<path d="M9310 4139 c-47 -10 -364 -75 -705 -144 -464 -94 -623 -129 -632
-142 -12 -16 -18 -43 -9 -43 15 0 1440 291 1447 296 14 8 11 54 -3 53 -7 0
-51 -9 -98 -20z"/>
<path d="M2389 3984 c-7 -25 -18 -48 -26 -51 -8 -3 -33 2 -55 11 -23 9 -43 14
-46 12 -2 -3 8 -20 22 -39 35 -46 33 -59 -15 -86 -47 -27 -39 -41 25 -41 l38
0 -4 -55 c-3 -30 -2 -55 2 -55 3 0 19 14 35 30 16 17 35 30 43 30 8 0 30 -17
48 -37 l33 -38 -2 60 c-2 46 1 60 13 61 8 2 32 6 53 9 l39 6 -46 29 c-25 16
-46 33 -46 37 0 5 12 26 26 46 14 21 24 41 21 43 -2 2 -20 -3 -40 -11 -56 -23
-64 -20 -82 35 -9 28 -18 50 -21 50 -2 0 -9 -21 -15 -46z"/>
<path d="M11837 3963 c-10 -32 -31 -75 -48 -95 -16 -20 -29 -39 -29 -42 0 -2
26 -10 57 -16 39 -9 66 -21 86 -41 27 -28 29 -34 25 -92 -3 -39 -19 -100 -45
-167 -22 -58 -43 -118 -47 -134 -7 -27 -6 -28 10 -15 29 24 148 189 197 274
75 129 88 219 40 267 -31 30 -185 118 -208 118 -17 0 -24 -11 -38 -57z"/>
<path d="M3477 3886 c-4 -9 -16 -16 -28 -16 -15 0 -19 -4 -15 -16 4 -9 -1 -25
-9 -34 -14 -16 -14 -18 5 -23 12 -3 20 -13 20 -27 0 -19 3 -20 15 -10 8 6 23
9 35 5 15 -5 20 -2 20 10 0 9 9 19 20 22 21 6 28 23 9 23 -7 0 -9 10 -7 25 4
20 1 25 -15 25 -11 0 -25 7 -32 16 -11 16 -12 16 -18 0z"/>
<path d="M7390 3750 c-74 -16 -377 -79 -674 -139 -296 -61 -556 -116 -577
-121 -37 -10 -75 -50 -47 -50 7 0 273 52 593 115 319 63 643 126 720 141 135
26 165 39 165 71 0 18 -24 16 -180 -17z"/>
<path d="M560 3700 c-107 -18 -218 -44 -227 -54 -3 -3 2 -22 12 -43 10 -20 21
-48 24 -62 6 -20 26 -33 103 -67 134 -57 257 -142 363 -248 128 -129 197 -239
259 -411 6 -15 13 -3 31 53 55 172 189 304 375 368 85 30 212 41 294 25 33 -6
61 -9 63 -7 8 8 -64 71 -127 111 -89 56 -350 205 -435 247 -84 42 -177 75
-265 94 -93 20 -339 17 -470 -6z"/>
<path d="M79 3627 c-37 -24 -79 -90 -79 -122 0 -11 10 -38 23 -60 64 -114 216
-115 267 -2 24 53 24 71 0 124 -36 80 -138 109 -211 60z"/>
<path d="M10694 3608 c-5 -7 -11 -45 -15 -84 -8 -104 -36 -153 -151 -265 -54
-52 -98 -99 -98 -105 0 -24 44 -77 86 -103 41 -27 119 -50 130 -39 2 3 -21 30
-51 60 -36 37 -55 64 -55 80 0 29 37 65 135 133 85 59 212 185 221 219 9 38
-11 63 -69 84 -79 30 -123 36 -133 20z"/>
<path d="M5535 3369 c-513 -109 -629 -134 -785 -174 -230 -58 -386 -112 -545
-190 -140 -68 -328 -185 -308 -192 7 -3 91 36 185 85 95 50 211 106 258 125
223 92 538 174 1100 287 113 23 215 45 228 50 20 9 32 41 15 39 -5 0 -71 -14
-148 -30z"/>
<path d="M3656 3226 c-78 -22 -110 -63 -161 -205 -84 -234 -196 -354 -418
-448 -184 -78 -350 -104 -692 -110 -278 -5 -319 -3 -850 48 -281 26 -460 23
-522 -9 -72 -37 -91 -106 -53 -189 30 -67 118 -107 149 -69 6 8 16 51 21 97 8
71 13 87 35 107 49 42 133 17 203 -63 56 -64 69 -114 81 -313 8 -153 11 -168
40 -227 53 -107 101 -133 376 -200 105 -26 200 -51 212 -55 27 -11 91 -136 76
-151 -5 -5 -54 -16 -109 -24 -116 -18 -275 -59 -469 -122 -244 -79 -479 -183
-458 -203 10 -10 129 6 513 69 358 59 550 84 790 105 164 14 258 20 785 46
357 18 532 48 672 115 265 125 373 313 283 491 -31 61 -143 204 -160 204 -19
0 -10 -40 27 -127 32 -75 37 -99 38 -163 0 -64 -4 -82 -27 -121 -56 -94 -186
-185 -324 -224 -51 -15 -139 -19 -649 -25 -324 -4 -614 -11 -643 -15 l-54 -8
-54 58 c-30 32 -53 63 -51 69 2 7 50 14 125 18 271 15 570 98 920 257 63 28
118 49 122 46 4 -3 18 -38 30 -77 51 -172 136 -257 225 -228 19 6 35 17 35 24
0 8 -27 48 -60 91 -59 76 -113 174 -125 226 -6 25 0 31 77 81 149 98 208 175
208 271 0 75 -18 119 -107 265 -117 193 -147 274 -124 330 15 36 32 45 121 67
132 32 189 119 140 212 -39 74 -108 102 -194 79z"/>
<path d="M12470 3172 c-12 -41 -29 -76 -36 -79 -8 -3 -44 7 -80 21 -37 15 -68
25 -70 24 -2 -2 17 -32 41 -67 52 -74 52 -75 -37 -123 -52 -29 -56 -34 -36
-40 13 -3 46 -6 74 -7 65 -1 75 -13 64 -71 -5 -25 -9 -58 -10 -74 0 -29 1 -29
51 27 28 31 56 57 62 57 6 0 35 -26 64 -57 l53 -58 -7 60 c-13 117 -18 109 64
116 40 3 75 8 79 11 3 3 -24 23 -60 43 -36 20 -66 41 -66 46 0 6 18 37 41 70
22 33 39 62 37 65 -3 2 -32 -7 -66 -21 -34 -14 -68 -25 -76 -25 -9 0 -23 29
-38 78 l-25 77 -23 -73z"/>
<path d="M8766 3199 c-3 -13 -7 -50 -11 -82 -9 -92 -38 -142 -147 -248 -67
-67 -98 -104 -98 -120 0 -37 80 -106 146 -125 30 -9 58 -13 62 -10 3 4 -18 30
-46 59 -40 40 -52 60 -52 83 0 35 13 49 115 120 92 65 209 176 229 219 13 26
14 40 6 54 -11 21 -103 60 -162 68 -33 5 -38 3 -42 -18z"/>
<path d="M1775 3163 c-262 -40 -504 -221 -530 -394 -10 -67 8 -68 41 -3 51
100 167 193 281 223 51 14 83 2 83 -30 0 -12 -25 -67 -55 -124 -30 -56 -55
-105 -55 -109 0 -16 32 -1 133 65 143 94 198 114 295 110 39 -2 62 -35 62 -91
0 -27 4 -50 9 -50 11 0 134 94 209 159 60 53 107 115 97 130 -10 17 -132 13
-251 -9 -157 -28 -147 -32 -139 44 4 35 3 66 -2 69 -13 8 -144 16 -178 10z"/>
<path d="M6921 2831 c-8 -5 -16 -40 -21 -90 -12 -110 -42 -163 -152 -264 -73
-66 -88 -85 -88 -110 0 -32 47 -85 100 -112 32 -17 110 -31 110 -20 0 4 -25
30 -55 59 -36 34 -55 60 -55 75 0 28 40 68 148 145 95 68 199 174 208 213 10
37 -5 55 -67 79 -70 28 -111 36 -128 25z"/>
<path d="M2127 2699 c-47 -11 -129 -52 -147 -74 -9 -11 -10 -19 -3 -26 6 -6
116 -24 244 -40 300 -39 496 -37 651 4 93 26 182 57 176 62 -2 2 -46 -3 -98
-11 -162 -23 -213 -19 -357 27 -70 22 -155 47 -188 55 -66 15 -218 17 -278 3z"/>
<path d="M10345 2688 c-4 -10 -18 -18 -31 -18 -21 0 -23 -4 -18 -24 4 -17 0
-27 -13 -35 -16 -9 -16 -10 -1 -11 9 0 24 -9 32 -21 8 -12 19 -18 25 -15 6 4
20 2 31 -4 17 -9 20 -8 20 10 0 12 9 24 23 29 20 8 20 10 4 16 -13 6 -17 14
-13 31 5 20 3 24 -18 24 -15 0 -26 7 -29 18 -4 16 -4 16 -12 0z"/>
<path d="M9096 2644 c-4 -10 -14 -14 -26 -11 -17 4 -19 1 -14 -18 3 -12 1 -26
-5 -29 -16 -10 -14 -26 3 -26 8 0 17 -8 20 -17 8 -26 76 -27 76 -1 0 10 7 18
15 18 17 0 20 16 4 26 -6 3 -9 15 -6 25 4 14 0 19 -14 19 -11 0 -22 7 -25 15
-8 20 -20 19 -28 -1z"/>
<path d="M11210 2614 c-7 -25 -18 -48 -25 -50 -6 -3 -28 2 -48 11 -55 23 -62
19 -33 -19 14 -19 26 -42 26 -50 0 -9 -19 -28 -42 -43 l-43 -28 45 -5 c66 -8
70 -13 63 -73 l-6 -52 42 40 41 39 41 -39 41 -40 -6 54 c-8 63 -2 71 63 71 36
0 41 2 32 14 -6 8 -25 19 -41 26 -40 16 -42 32 -13 75 13 20 22 39 19 42 -3 3
-24 -2 -46 -11 -23 -9 -46 -14 -51 -11 -5 4 -14 26 -20 51 -6 24 -15 44 -19
44 -4 0 -13 -21 -20 -46z"/>
<path d="M11977 2646 c-4 -9 -16 -16 -27 -16 -17 0 -20 -4 -15 -20 4 -13 1
-22 -9 -26 -22 -8 -20 -21 4 -27 12 -3 20 -14 20 -27 0 -19 3 -20 15 -10 8 6
23 9 35 5 15 -5 20 -2 20 10 0 9 9 19 20 22 21 6 28 23 9 23 -7 0 -10 12 -7
29 3 23 1 27 -14 23 -11 -3 -24 3 -32 13 -12 16 -13 16 -19 1z"/>
<path d="M9571 2440 c-13 -43 -27 -49 -77 -30 -36 14 -40 7 -15 -28 28 -41 27
-49 -14 -73 -19 -12 -35 -25 -35 -29 0 -5 19 -10 43 -12 l42 -3 0 -48 c0 -26
2 -47 5 -47 2 0 19 14 37 32 l33 32 36 -35 36 -34 -2 40 c-4 63 -3 65 39 65
53 0 58 13 16 36 -41 22 -43 34 -13 82 l22 35 -25 -8 c-13 -4 -37 -8 -54 -9
-27 -1 -31 3 -39 37 -5 20 -13 37 -16 37 -4 0 -12 -18 -19 -40z"/>
<path d="M5036 2441 c-4 -6 -11 -46 -15 -89 -11 -106 -36 -151 -147 -257 -109
-105 -115 -121 -56 -177 43 -42 83 -64 135 -73 50 -10 48 5 -7 50 -24 19 -49
49 -56 65 -17 42 1 67 103 137 45 31 117 91 159 133 74 74 97 113 84 145 -13
35 -185 91 -200 66z"/>
<path d="M7395 2328 c-4 -10 -17 -18 -30 -18 -18 0 -22 -4 -18 -20 3 -11 0
-26 -6 -34 -9 -11 -7 -15 9 -19 12 -3 20 -13 20 -27 0 -19 2 -21 16 -9 12 10
20 10 35 1 16 -11 19 -9 19 9 0 13 8 23 20 26 19 5 19 7 5 23 -8 9 -13 25 -9
34 4 12 1 16 -14 16 -12 0 -25 8 -31 18 -9 16 -10 16 -16 0z"/>
<path d="M8175 2298 c-4 -10 -16 -18 -27 -18 -13 0 -18 -5 -15 -14 3 -7 -1
-23 -9 -34 -12 -18 -11 -20 6 -25 12 -3 20 -14 20 -27 0 -19 3 -20 15 -10 8 6
23 9 35 5 15 -5 20 -2 20 10 0 9 9 19 20 22 20 5 28 23 10 23 -5 0 -10 11 -10
25 0 17 -6 25 -16 25 -9 0 -23 8 -30 18 -12 16 -13 16 -19 0z"/>
<path d="M10823 2122 c33 -48 49 -61 55 -44 4 12 -44 69 -68 82 -13 7 -9 -4
13 -38z"/>
<path d="M12004 2145 c13 -14 29 -39 36 -55 15 -36 30 -39 30 -6 0 16 -13 35
-37 55 -45 37 -61 40 -29 6z"/>
<path d="M10283 2051 c-131 -108 -231 -242 -378 -501 -48 -85 -96 -165 -107
-176 -24 -27 -22 -97 4 -102 11 -2 31 24 68 90 29 51 68 114 86 139 19 26 34
52 34 59 0 19 103 201 175 310 35 52 91 125 125 163 34 37 59 67 56 67 -3 0
-31 -22 -63 -49z"/>
<path d="M11504 2072 c-70 -51 -199 -198 -272 -308 -39 -60 -80 -121 -91 -136
-12 -14 -21 -31 -21 -37 0 -7 -21 -48 -46 -92 -90 -159 -98 -239 -26 -239 21
0 22 2 12 15 -18 22 -7 54 73 197 40 71 78 141 86 156 30 60 147 251 185 302
22 30 64 81 94 113 30 31 53 57 50 57 -3 0 -23 -13 -44 -28z"/>
<path d="M8905 1951 c-191 -55 -346 -184 -406 -339 -14 -34 -24 -87 -27 -134
-7 -123 36 -190 136 -217 24 -7 45 -19 49 -29 18 -56 69 -145 102 -180 59 -61
96 -76 43 -18 -66 72 -91 135 -98 249 -7 112 3 169 52 276 58 127 170 247 247
266 39 10 34 28 -5 20 -143 -29 -289 -185 -342 -364 -9 -30 -16 -90 -16 -133
0 -88 -9 -96 -53 -52 -38 38 -50 85 -45 180 4 73 10 94 46 167 69 139 211 257
372 308 72 23 25 23 -55 0z"/>
<path d="M6879 1932 c-58 -38 -139 -126 -139 -152 0 -12 -52 -115 -116 -229
-100 -181 -115 -214 -112 -248 3 -33 6 -38 31 -41 25 -3 28 -1 22 17 -5 16 33
92 150 304 86 155 175 303 197 330 45 54 33 61 -33 19z"/>
<path d="M9622 1929 c-79 -25 -155 -77 -250 -171 -211 -208 -280 -447 -163
-558 38 -36 98 -61 142 -59 19 1 17 3 -11 11 -76 22 -120 83 -120 168 0 58 44
185 92 268 82 139 193 248 325 319 86 47 81 52 -15 22z"/>
<path d="M5750 1917 c-170 -70 -292 -208 -336 -377 -32 -127 21 -255 115 -276
14 -3 34 -8 43 -10 9 -3 22 -22 29 -42 31 -97 100 -187 170 -222 17 -8 13 -1
-13 22 -57 51 -105 142 -116 218 -24 176 30 350 151 486 55 61 129 114 160
114 10 0 15 4 12 10 -3 5 -20 7 -38 3 -103 -20 -230 -130 -290 -253 -44 -88
-71 -204 -61 -265 4 -28 2 -45 -5 -50 -17 -10 -58 20 -78 58 -25 48 -23 175 5
252 46 126 161 259 280 324 67 36 51 40 -28 8z"/>
<path d="M6508 1933 c-16 -2 -28 -10 -28 -16 0 -7 -17 -28 -37 -47 -57 -54
-122 -141 -116 -156 3 -8 -8 -40 -25 -71 -71 -139 -106 -287 -82 -348 12 -30
12 -30 26 35 32 151 191 477 274 560 20 20 23 21 47 5 31 -21 55 -12 51 17 -2
19 -10 23 -43 24 -22 1 -52 -1 -67 -3z"/>
<path d="M9875 1877 c-6 -13 -22 -24 -39 -27 -54 -9 -63 -70 -11 -70 34 0 75
45 75 81 0 36 -13 44 -25 16z"/>
<path d="M7962 1805 c-6 -8 -19 -12 -28 -8 -12 4 -14 0 -8 -21 5 -19 2 -27
-12 -33 -15 -6 -15 -7 4 -14 13 -5 22 -17 22 -29 0 -18 3 -19 21 -10 15 9 24
8 35 -1 11 -9 14 -8 14 4 0 9 9 22 21 30 14 10 17 17 9 22 -7 4 -9 18 -5 32 5
20 3 24 -9 20 -9 -4 -22 0 -30 8 -18 18 -18 18 -34 0z"/>
<path d="M10682 1748 c-16 -16 -15 -47 2 -54 24 -9 58 15 54 39 -3 25 -37 34
-56 15z"/>
<path d="M7237 1672 c-18 -19 -22 -49 -10 -78 5 -13 10 -6 24 27 28 68 21 90
-14 51z"/>
<path d="M7536 1668 c-17 -25 -20 -56 -7 -76 5 -9 13 0 24 30 10 24 17 49 17
56 0 19 -17 14 -34 -10z"/>
<path d="M10326 1668 c-17 -24 -20 -46 -9 -74 5 -13 10 -6 24 27 10 24 18 50
18 57 1 19 -16 14 -33 -10z"/>
<path d="M10114 1613 c-7 -2 -10 -13 -7 -23 3 -12 -18 -61 -55 -127 -68 -123
-76 -145 -68 -179 5 -18 13 -24 32 -24 20 0 25 4 20 16 -4 11 17 59 55 128 68
123 85 187 53 204 -11 5 -24 7 -30 5z"/>
<path d="M11571 1611 c-7 -5 -10 -14 -6 -20 3 -7 -26 -70 -65 -141 -73 -133
-84 -175 -45 -175 14 0 34 27 78 105 32 58 65 112 73 121 19 21 18 84 -2 103
-18 19 -15 18 -33 7z"/>
<path d="M11764 1614 c-7 -3 -10 -13 -7 -23 2 -10 -24 -73 -61 -144 -67 -129
-75 -154 -54 -175 21 -21 48 -14 48 13 0 13 27 74 61 134 63 114 78 173 49
192 -16 9 -19 10 -36 3z"/>
<path d="M12035 1603 c-60 -31 -148 -135 -183 -216 -26 -60 -9 -127 33 -127
22 0 23 3 18 36 -11 67 100 248 187 306 l25 17 -25 0 c-14 0 -38 -7 -55 -16z"/>
<path d="M6925 1591 c-108 -49 -191 -179 -164 -258 12 -36 52 -73 80 -73 16 0
15 3 -6 25 -14 14 -25 36 -25 51 0 40 52 140 110 212 27 34 49 62 47 62 -1 0
-20 -9 -42 -19z"/>
<path d="M7033 1567 c-8 -28 -27 -59 -54 -85 -48 -48 -39 -53 32 -17 46 24 89
73 89 102 0 15 -28 43 -44 43 -6 0 -17 -20 -23 -43z"/>
<path d="M7843 1598 c-6 -7 -27 -44 -48 -83 -21 -38 -53 -91 -72 -118 -47 -67
-43 -137 7 -137 11 0 17 9 17 28 0 15 28 77 62 137 35 61 65 122 68 136 6 30
-18 57 -34 37z"/>
<path d="M8062 1600 c-12 -5 -35 -30 -50 -55 -15 -25 -51 -82 -79 -126 -29
-44 -53 -85 -53 -92 0 -15 -132 -245 -191 -334 -27 -39 -76 -104 -111 -144
-86 -99 -38 -71 77 45 50 50 120 136 157 191 69 104 288 494 288 514 0 13 -7
13 -38 1z"/>
<path d="M10602 1582 c-36 -51 -142 -255 -142 -273 0 -33 12 -49 36 -49 19 0
24 5 24 25 0 14 29 79 65 144 36 64 65 129 65 143 0 37 -26 42 -48 10z"/>
<path d="M10819 1581 c-36 -36 -36 -59 -4 -145 32 -86 32 -120 -1 -153 l-26
-26 29 7 c15 4 40 19 56 34 36 34 35 70 -3 165 -33 82 -35 99 -20 128 15 27 3
24 -31 -10z"/>
<path d="M11388 1592 c-9 -9 -27 -40 -41 -68 -14 -28 -46 -81 -71 -118 -45
-65 -54 -97 -37 -125 16 -25 38 -4 92 91 29 51 63 107 76 124 25 34 30 85 10
103 -11 8 -18 7 -29 -7z"/>
<path d="M12196 1585 c-20 -14 -40 -25 -45 -25 -4 0 -18 -25 -30 -55 -13 -30
-40 -81 -60 -113 -35 -54 -37 -61 -27 -93 8 -23 18 -35 34 -37 18 -3 22 1 22
22 0 14 34 86 75 160 103 184 104 191 31 141z"/>
<path d="M12397 1590 c-39 -31 -42 -67 -12 -145 32 -87 32 -128 0 -160 -22
-23 -22 -25 -5 -25 11 0 35 14 55 31 43 38 46 82 11 163 -32 72 -40 111 -26
135 13 26 9 26 -23 1z"/>
<path d="M10970 1573 c0 -7 -10 -13 -21 -15 -12 -2 -27 -11 -33 -20 -15 -24 5
-42 38 -34 29 7 46 50 27 69 -8 8 -11 8 -11 0z"/>
<path d="M12540 1572 c0 -4 -14 -13 -31 -19 -21 -8 -30 -17 -27 -30 4 -24 41
-28 62 -8 18 18 22 65 6 65 -5 0 -10 -4 -10 -8z"/>
<path d="M7292 1506 c-1 -13 -20 -58 -42 -99 -48 -88 -52 -140 -12 -145 16 -3
22 2 22 17 0 11 18 55 41 97 41 78 44 109 17 141 -16 19 -23 16 -26 -11z"/>
<path d="M7600 1517 c0 -10 -20 -57 -45 -105 -54 -101 -58 -145 -13 -150 22
-3 26 0 21 17 -3 12 9 43 32 80 47 78 54 118 26 151 -17 21 -20 22 -21 7z"/>
<path d="M10390 1518 c0 -9 -21 -55 -46 -103 -51 -97 -57 -147 -16 -153 16 -3
22 2 22 17 0 11 18 54 40 96 22 42 40 84 40 94 0 25 -39 73 -40 49z"/>
<path d="M10683 1438 c-24 -27 -39 -68 -24 -68 10 0 61 68 61 82 0 15 -16 8
-37 -14z"/>
<path d="M12251 1434 c-12 -15 -21 -36 -21 -48 1 -19 3 -18 26 9 14 17 29 38
35 48 16 28 -16 21 -40 -9z"/>
<path d="M5330 1212 c0 -22 53 -74 100 -97 l35 -17 -43 37 c-23 20 -49 50 -58
66 -16 33 -34 38 -34 11z"/>
<path d="M6986 804 c-8 -21 8 -49 48 -79 48 -37 52 -31 12 17 -20 23 -36 47
-36 54 0 20 -17 26 -24 8z"/>
</g>
</svg>
